<?xml version="1.0" encoding="UTF-8"?>
<svg width="5px" height="9px" viewBox="0 0 5 9" version="1.1" xmlns="http://www.w3.org/2000/svg" xmlns:xlink="http://www.w3.org/1999/xlink">
    <!-- Generator: Sketch 48.2 (47327) - http://www.bohemiancoding.com/sketch -->
    <title>Shape Copy 7</title>
    <desc>Created with Sketch.</desc>
    <defs></defs>
    <g id="首页-2" stroke="none" stroke-width="1" fill="none" fill-rule="evenodd" transform="translate(-284.000000, -510.000000)">
        <path d="M288.925232,514.742289 C288.930942,514.730681 288.940198,514.720965 288.9452,514.708974 C289.043238,514.494903 289.01114,514.232952 288.837541,514.060785 L284.902331,510.153382 C284.687723,509.940437 284.349436,509.950536 284.14623,510.175471 C283.943388,510.400768 283.952663,510.755905 284.167271,510.969232 L287.698234,514.475831 L284.181164,518.034455 C283.968702,518.249633 283.962282,518.60479 284.167271,518.828216 C284.272074,518.942725 284.412176,519 284.552278,519 C284.68596,519 284.819642,518.947614 284.923372,518.842821 L288.822939,514.897235 C288.830432,514.889369 288.833268,514.878526 288.840761,514.870298 C288.846471,514.864685 288.852527,514.860561 288.858218,514.854586 C288.888515,514.821251 288.904555,514.780452 288.925232,514.742289 Z" id="Shape-Copy-7" fill="#999999" fill-rule="nonzero"></path>
    </g>
</svg>
